<mxfile host="65bd71144e">
    <diagram id="6rI_SE375F7o7qqR3Ee0" name="Page-1">
        <mxGraphModel dx="739" dy="492" grid="1" gridSize="10" guides="1" tooltips="1" connect="1" arrows="1" fold="1" page="1" pageScale="1" pageWidth="850" pageHeight="1100" math="0" shadow="0">
            <root>
                <mxCell id="0"/>
                <mxCell id="1" parent="0"/>
                <mxCell id="2" value="Enterprise Network" style="shape=mxgraph.ibm.box;prType=enterprise;fontStyle=0;verticalAlign=top;align=left;spacingLeft=32;spacingTop=4;fillColor=none;rounded=0;whiteSpace=wrap;html=1;strokeColor=#4376BB;strokeWidth=3;dashed=0;container=1;spacing=-4;collapsible=0;expand=0;recursiveResize=0;" vertex="1" parent="1">
                    <mxGeometry x="620" y="40" width="200" height="480" as="geometry"/>
                </mxCell>
                <mxCell id="3" value="SAP Inventory Services" style="rounded=0;whiteSpace=wrap;html=1;fillColor=#e1d5e7;strokeColor=#9673a6;" vertex="1" parent="2">
                    <mxGeometry x="40" y="30" width="105" height="40" as="geometry"/>
                </mxCell>
                <mxCell id="13" value="Payment Service" style="rounded=0;whiteSpace=wrap;html=1;fillColor=#e1d5e7;strokeColor=#9673a6;" vertex="1" parent="2">
                    <mxGeometry x="40" y="100" width="105" height="40" as="geometry"/>
                </mxCell>
                <mxCell id="14" value="Product Service" style="rounded=0;whiteSpace=wrap;html=1;fillColor=#e1d5e7;strokeColor=#9673a6;" vertex="1" parent="2">
                    <mxGeometry x="40" y="150" width="105" height="40" as="geometry"/>
                </mxCell>
                <mxCell id="15" value="CRM" style="rounded=0;whiteSpace=wrap;html=1;fillColor=#e1d5e7;strokeColor=#9673a6;" vertex="1" parent="2">
                    <mxGeometry x="40" y="220" width="105" height="40" as="geometry"/>
                </mxCell>
                <mxCell id="16" value="Order Fulfillment" style="rounded=0;whiteSpace=wrap;html=1;fillColor=#e1d5e7;strokeColor=#9673a6;" vertex="1" parent="2">
                    <mxGeometry x="40" y="280" width="105" height="40" as="geometry"/>
                </mxCell>
                <mxCell id="6" value="IBM Cloud" style="shape=mxgraph.ibm.box;prType=cloud;fontStyle=0;verticalAlign=top;align=left;spacingLeft=32;spacingTop=4;fillColor=none;rounded=0;whiteSpace=wrap;html=1;strokeColor=#4376BB;strokeWidth=3;dashed=0;container=1;spacing=-4;collapsible=0;expand=0;recursiveResize=0;" vertex="1" parent="1">
                    <mxGeometry x="400" y="40" width="200" height="480" as="geometry"/>
                </mxCell>
                <mxCell id="9" value="OpenShift" style="swimlane;fillColor=#f8cecc;strokeColor=#b85450;" vertex="1" parent="6">
                    <mxGeometry x="10" y="30" width="180" height="230" as="geometry"/>
                </mxCell>
                <mxCell id="18" value="IBM MQ" style="rounded=0;whiteSpace=wrap;html=1;fillColor=#dae8fc;strokeColor=#6c8ebf;" vertex="1" parent="9">
                    <mxGeometry x="30" y="30" width="120" height="20" as="geometry"/>
                </mxCell>
                <mxCell id="19" value="IBM Event Streams" style="rounded=0;whiteSpace=wrap;html=1;fillColor=#dae8fc;strokeColor=#6c8ebf;" vertex="1" parent="9">
                    <mxGeometry x="30" y="60" width="120" height="20" as="geometry"/>
                </mxCell>
                <mxCell id="20" value="Streaming Apps" style="rounded=0;whiteSpace=wrap;html=1;fillColor=#d5e8d4;strokeColor=#82b366;" vertex="1" parent="9">
                    <mxGeometry x="30" y="130" width="120" height="20" as="geometry"/>
                </mxCell>
                <mxCell id="21" value="Kafka Connector" style="rounded=0;whiteSpace=wrap;html=1;fillColor=#dae8fc;strokeColor=#6c8ebf;" vertex="1" parent="9">
                    <mxGeometry x="30" y="190" width="120" height="20" as="geometry"/>
                </mxCell>
                <mxCell id="17" value="S3 Buckets" style="shape=cube;whiteSpace=wrap;html=1;boundedLbl=1;backgroundOutline=1;darkOpacity=0.05;darkOpacity2=0.1;" vertex="1" parent="6">
                    <mxGeometry x="20" y="310" width="170" height="40" as="geometry"/>
                </mxCell>
                <mxCell id="7" value="Enterprise Network" style="shape=mxgraph.ibm.box;prType=enterprise;fontStyle=0;verticalAlign=top;align=left;spacingLeft=32;spacingTop=4;fillColor=none;rounded=0;whiteSpace=wrap;html=1;strokeColor=#4376BB;strokeWidth=3;dashed=0;container=1;spacing=-4;collapsible=0;expand=0;recursiveResize=0;" vertex="1" parent="1">
                    <mxGeometry x="250" y="40" width="140" height="480" as="geometry"/>
                </mxCell>
                <mxCell id="10" value="Store Server" style="rounded=0;whiteSpace=wrap;html=1;" vertex="1" parent="7">
                    <mxGeometry x="10" y="40" width="120" height="60" as="geometry"/>
                </mxCell>
                <mxCell id="11" value="WareHouse Server" style="rounded=0;whiteSpace=wrap;html=1;" vertex="1" parent="7">
                    <mxGeometry x="10" y="115" width="120" height="60" as="geometry"/>
                </mxCell>
                <mxCell id="12" value="e-commerce web" style="rounded=0;whiteSpace=wrap;html=1;" vertex="1" parent="7">
                    <mxGeometry x="10" y="200" width="120" height="60" as="geometry"/>
                </mxCell>
            </root>
        </mxGraphModel>
    </diagram>
</mxfile>